<?xml version="1.0" encoding="UTF-8" standalone="no"?>
<!DOCTYPE svg PUBLIC "-//W3C//DTD SVG 1.1//EN" "http://www.w3.org/Graphics/SVG/1.1/DTD/svg11.dtd">
<svg width="100%" height="100%" viewBox="0 0 3000 3000" version="1.1" xmlns="http://www.w3.org/2000/svg" xmlns:xlink="http://www.w3.org/1999/xlink" xml:space="preserve" xmlns:serif="http://www.serif.com/" style="fill-rule:evenodd;clip-rule:evenodd;stroke-linejoin:round;stroke-miterlimit:2;">
    <g transform="matrix(0.926246,0,0,0.926246,110.631,110.631)">
        <g transform="matrix(34.5159,0,0,-34.5159,-5910.01,7292.13)">
            <path d="M184.715,155.769C185.191,155.769 185.602,155.937 185.941,156.281C186.281,156.621 186.461,157.027 186.48,157.508L186.48,172.812C186.461,173.289 186.281,173.695 185.941,174.023C185.602,174.355 185.191,174.523 184.715,174.523L184.355,174.523L184.355,174.797L190.395,174.797L190.395,174.523L190.035,174.523C189.559,174.523 189.148,174.355 188.809,174.023C188.469,173.695 188.289,173.289 188.273,172.812L188.273,157.508C188.273,157.027 188.445,156.621 188.797,156.281C189.145,155.937 189.559,155.769 190.035,155.769L190.395,155.769L190.395,155.492L184.355,155.492L184.355,155.769L184.715,155.769Z" style="fill:rgb(197,143,8);"/>
        </g>
        <g transform="matrix(34.5159,0,0,-34.5159,-5910.01,7335.55)">
            <path d="M193.324,159.524C193.645,159.524 193.918,159.637 194.145,159.863C194.371,160.09 194.488,160.363 194.5,160.68L194.5,170.867C194.488,171.184 194.371,171.457 194.145,171.684C193.918,171.91 193.645,172.024 193.324,172.024L193.086,172.024L193.086,172.207L197.113,172.207L197.113,172.024L196.871,172.024C196.43,172.024 196.094,171.836 195.863,171.453C195.75,171.27 195.695,171.074 195.695,170.867L195.695,159.91L198.324,159.91C199.23,159.91 199.926,160.113 200.402,160.516C200.879,160.922 201.277,161.52 201.598,162.317L201.781,162.317L200.715,159.34L193.086,159.34L193.086,159.524L193.324,159.524Z" style="fill:rgb(197,143,8);"/>
        </g>
        <g transform="matrix(34.5159,0,0,-34.5159,-5910.01,6905.21)">
            <path d="M187.664,149.891L180.938,149.891L180.965,150.165L181.297,150.165C181.773,150.165 182.184,150.333 182.523,150.661C182.863,150.993 183.043,151.399 183.059,151.876L183.059,167.204C183.059,167.681 182.887,168.087 182.535,168.419C182.188,168.747 181.773,168.915 181.297,168.915L180.965,168.915L180.938,169.188L186.422,169.188C188.316,169.188 189.785,168.77 190.836,167.934C191.883,167.099 192.406,165.981 192.406,164.583C192.406,163.481 192.113,162.567 191.523,161.841C190.934,161.114 190.219,160.634 189.371,160.395C190.824,160.173 191.973,159.575 192.82,158.602C193.664,157.63 194.086,156.399 194.086,154.923C194.086,153.442 193.523,152.235 192.391,151.298C191.262,150.36 189.684,149.891 187.664,149.891ZM184.852,150.884L187.609,150.884C189.004,150.884 190.09,151.263 190.863,152.028C191.633,152.79 192.02,153.868 192.02,155.267C192.02,156.056 191.887,156.751 191.621,157.349C191.352,157.946 191.02,158.419 190.613,158.767C189.547,159.649 187.949,160.091 185.816,160.091L185.789,160.091L185.789,160.341L186.051,160.341C186.207,160.341 186.434,160.356 186.727,160.395C187.02,160.431 187.352,160.497 187.719,160.587C188.086,160.681 188.418,160.825 188.711,161.028C189.004,161.231 189.281,161.47 189.539,161.747C190.07,162.352 190.336,163.259 190.336,164.462C190.336,165.665 189.992,166.606 189.305,167.286C188.613,167.966 187.617,168.306 186.312,168.306L184.852,168.306L184.852,150.884Z" style="fill:rgb(197,143,8);"/>
        </g>
        <g transform="matrix(34.5159,0,0,-34.5159,-5910.01,7144.89)">
            <path d="M205.027,160.132L202.984,160.132L202.992,160.218L203.094,160.218C203.238,160.218 203.363,160.265 203.465,160.367C203.566,160.468 203.621,160.589 203.629,160.734L203.629,165.39C203.629,165.535 203.574,165.656 203.469,165.757C203.363,165.859 203.238,165.91 203.094,165.91L202.992,165.91L202.984,165.992L204.648,165.992C205.223,165.992 205.672,165.863 205.988,165.609C206.309,165.355 206.465,165.019 206.465,164.593C206.465,164.257 206.375,163.98 206.199,163.761C206.02,163.543 205.801,163.394 205.547,163.32C205.984,163.253 206.336,163.074 206.59,162.777C206.848,162.48 206.977,162.109 206.977,161.66C206.977,161.211 206.805,160.843 206.461,160.558C206.117,160.273 205.641,160.132 205.027,160.132ZM204.172,160.433L205.008,160.433C205.434,160.433 205.762,160.55 205.996,160.781C206.23,161.011 206.348,161.339 206.348,161.765C206.348,162.003 206.309,162.214 206.227,162.398C206.145,162.578 206.043,162.722 205.922,162.828C205.598,163.097 205.113,163.23 204.465,163.23L204.457,163.23L204.457,163.304L204.535,163.304C204.582,163.304 204.652,163.312 204.742,163.32C204.832,163.332 204.93,163.351 205.043,163.378C205.156,163.41 205.254,163.453 205.344,163.515C205.434,163.574 205.516,163.648 205.594,163.73C205.758,163.918 205.84,164.191 205.84,164.554C205.84,164.921 205.734,165.207 205.523,165.414C205.316,165.621 205.012,165.722 204.617,165.722L204.172,165.722L204.172,160.433ZM212.785,160.218L212.852,160.218L212.852,160.132L211.137,160.132L211.137,160.218L211.203,160.218C211.309,160.218 211.391,160.253 211.445,160.324C211.5,160.398 211.531,160.464 211.531,160.531C211.531,160.593 211.52,160.656 211.496,160.718L211.035,161.832L208.918,161.832L208.457,160.742C208.43,160.671 208.414,160.601 208.414,160.539C208.414,160.476 208.445,160.406 208.5,160.328C208.555,160.253 208.641,160.218 208.75,160.218L208.816,160.218L208.816,160.132L207.219,160.132L207.219,160.218L207.285,160.218C207.402,160.218 207.523,160.257 207.641,160.339C207.762,160.418 207.859,160.539 207.938,160.703C209.16,163.312 209.797,164.679 209.848,164.804C209.941,165.039 209.992,165.195 209.996,165.273L210.074,165.273L212.141,160.703C212.301,160.378 212.516,160.218 212.785,160.218ZM209.027,162.082L210.934,162.082L209.996,164.375L209.027,162.082ZM213.387,160.218C213.523,160.218 213.633,160.261 213.727,160.347C213.82,160.433 213.867,160.539 213.875,160.66L213.875,164.621C213.867,164.742 213.816,164.847 213.719,164.937C213.621,165.027 213.504,165.07 213.371,165.07L213.27,165.07L213.27,165.156L215.004,165.156L215.004,165.07L214.902,165.07C214.77,165.07 214.652,165.027 214.555,164.937C214.457,164.847 214.41,164.742 214.41,164.621L214.41,160.39L215.715,160.39C215.973,160.39 216.188,160.437 216.367,160.527C216.547,160.617 216.68,160.722 216.773,160.843C216.867,160.968 216.957,161.128 217.047,161.328L217.129,161.328L216.668,160.132L213.27,160.132L213.27,160.218L213.387,160.218ZM224.086,165.07L224.027,165.07C223.691,165.07 223.461,164.906 223.34,164.578L222.125,160.961C222.004,160.609 221.938,160.3 221.934,160.031L221.848,160.031L220.293,164.015L219.203,160.961C219.094,160.617 219.031,160.304 219.02,160.031L218.945,160.031L217.188,164.609C217.059,164.918 216.836,165.07 216.52,165.07L216.449,165.07L216.449,165.156L218.176,165.156L218.176,165.07L218.109,165.07C218.008,165.07 217.93,165.039 217.879,164.98C217.824,164.918 217.797,164.855 217.797,164.796C217.797,164.734 217.809,164.675 217.824,164.621L218.938,161.211L220.352,165.289L220.434,165.281L221.934,161.464L222.871,164.57C222.898,164.648 222.914,164.718 222.914,164.777C222.914,164.839 222.891,164.902 222.844,164.972C222.801,165.039 222.727,165.07 222.621,165.07L222.551,165.07L222.551,165.156L224.086,165.156L224.086,165.07ZM228.812,160.218L228.879,160.218L228.879,160.132L227.164,160.132L227.164,160.218L227.23,160.218C227.336,160.218 227.418,160.253 227.473,160.324C227.531,160.398 227.559,160.464 227.559,160.531C227.559,160.593 227.547,160.656 227.523,160.718L227.062,161.832L224.945,161.832L224.484,160.742C224.457,160.671 224.445,160.601 224.445,160.539C224.445,160.476 224.473,160.406 224.527,160.328C224.582,160.253 224.668,160.218 224.777,160.218L224.848,160.218L224.848,160.132L223.246,160.132L223.246,160.218L223.312,160.218C223.43,160.218 223.551,160.257 223.672,160.339C223.789,160.418 223.891,160.539 223.969,160.703C225.188,163.312 225.824,164.679 225.875,164.804C225.969,165.039 226.02,165.195 226.027,165.273L226.102,165.273L228.168,160.703C228.332,160.378 228.547,160.218 228.812,160.218ZM225.055,162.082L226.965,162.082L226.027,164.375L225.055,162.082ZM234.781,162.644C234.781,161.867 234.539,161.257 234.059,160.808C233.574,160.359 232.922,160.132 232.094,160.132L229.297,160.132L229.297,160.218L229.406,160.218C229.543,160.218 229.652,160.261 229.742,160.351C229.832,160.441 229.879,160.546 229.883,160.668L229.883,164.621C229.879,164.753 229.832,164.863 229.738,164.945C229.645,165.031 229.531,165.07 229.398,165.07L229.297,165.07L229.297,165.156L232.094,165.156C232.641,165.156 233.117,165.054 233.52,164.855C233.926,164.652 234.238,164.363 234.453,163.984C234.672,163.605 234.781,163.156 234.781,162.644ZM230.43,164.902L230.43,160.382L232.094,160.382C232.734,160.382 233.242,160.585 233.617,160.992C233.992,161.394 234.18,161.945 234.18,162.644C234.18,163.339 233.992,163.89 233.617,164.296C233.242,164.703 232.734,164.902 232.094,164.902L230.43,164.902ZM240.34,160.132L240.027,160.132C239.48,160.132 239.07,160.293 238.797,160.609L236.957,162.628L238.758,164.746C238.816,164.824 238.828,164.898 238.785,164.964C238.742,165.035 238.672,165.07 238.574,165.07L238.496,165.07L238.496,165.156L240.203,165.156L240.203,165.07L240.172,165.07C239.832,165.07 239.559,164.972 239.359,164.769L237.535,162.82L239.609,160.558C239.711,160.437 239.812,160.351 239.922,160.3C240.027,160.25 240.164,160.222 240.34,160.218L240.34,160.132ZM237.156,160.218L237.25,160.218L237.25,160.132L235.535,160.132L235.535,160.218L235.637,160.218C235.77,160.218 235.883,160.261 235.977,160.351C236.074,160.441 236.121,160.546 236.129,160.668L236.129,164.621C236.125,164.742 236.074,164.847 235.977,164.937C235.883,165.027 235.77,165.07 235.637,165.07L235.535,165.07L235.535,165.156L237.25,165.156L237.25,165.07L237.148,165.07C236.973,165.07 236.832,165 236.73,164.855C236.688,164.785 236.664,164.711 236.664,164.628L236.664,160.66C236.664,160.539 236.715,160.433 236.812,160.347C236.906,160.261 237.023,160.218 237.156,160.218ZM245.82,160.218L245.887,160.218L245.887,160.132L244.172,160.132L244.172,160.218L244.238,160.218C244.344,160.218 244.426,160.253 244.48,160.324C244.539,160.398 244.566,160.464 244.566,160.531C244.566,160.593 244.555,160.656 244.531,160.718L244.07,161.832L241.953,161.832L241.492,160.742C241.465,160.671 241.453,160.601 241.453,160.539C241.453,160.476 241.48,160.406 241.535,160.328C241.59,160.253 241.676,160.218 241.785,160.218L241.852,160.218L241.852,160.132L240.254,160.132L240.254,160.218L240.32,160.218C240.438,160.218 240.559,160.257 240.676,160.339C240.797,160.418 240.895,160.539 240.973,160.703C242.195,163.312 242.832,164.679 242.883,164.804C242.977,165.039 243.027,165.195 243.035,165.273L243.109,165.273L245.176,160.703C245.34,160.378 245.555,160.218 245.82,160.218ZM242.062,162.082L243.973,162.082L243.035,164.375L242.062,162.082ZM247.871,164.894L247.43,164.894L247.43,160.668C247.434,160.496 247.512,160.363 247.66,160.273C247.734,160.238 247.816,160.218 247.906,160.218L248.016,160.218L248.023,160.132L246.305,160.132L246.305,160.218L246.422,160.218C246.551,160.218 246.66,160.261 246.754,160.347C246.848,160.433 246.891,160.539 246.891,160.66L246.891,164.636C246.891,164.757 246.848,164.863 246.754,164.945C246.66,165.031 246.551,165.07 246.422,165.07L246.305,165.07L246.305,165.156L248.406,165.156C248.93,165.156 249.348,165.035 249.648,164.796C249.953,164.554 250.105,164.238 250.105,163.847C250.105,163.457 249.984,163.132 249.738,162.871C249.492,162.609 249.18,162.457 248.801,162.418C248.98,162.339 249.195,162.121 249.445,161.765C249.438,161.765 249.535,161.64 249.734,161.398C249.934,161.152 250.09,160.961 250.211,160.824C250.332,160.687 250.43,160.582 250.508,160.511C250.715,160.316 250.953,160.218 251.219,160.218L251.219,160.132L250.961,160.132C250.52,160.132 250.172,160.218 249.922,160.39C249.73,160.519 249.559,160.679 249.402,160.871C249.371,160.914 249.23,161.109 248.98,161.461C248.73,161.808 248.598,161.992 248.582,162.015C248.281,162.39 248,162.578 247.738,162.578L247.738,162.66C248.391,162.66 248.785,162.695 248.918,162.761C249.102,162.855 249.227,162.957 249.293,163.062C249.434,163.285 249.504,163.531 249.504,163.8C249.504,164.14 249.402,164.402 249.203,164.585C249,164.769 248.73,164.871 248.391,164.886C248.238,164.89 248.066,164.894 247.871,164.894Z" style="fill:rgb(197,143,8);"/>
        </g>
        <g transform="matrix(34.5159,0,0,-34.5159,-5910.01,7693.24)">
            <path d="M211.129,168.433C211.258,168.433 211.371,168.48 211.465,168.574C211.559,168.668 211.605,168.781 211.613,168.91L211.613,173.113C211.609,173.242 211.559,173.355 211.465,173.445C211.371,173.535 211.258,173.582 211.129,173.582L211.027,173.582L211.027,173.656L212.688,173.656L212.688,173.582L212.59,173.582C212.457,173.582 212.344,173.535 212.25,173.445C212.16,173.355 212.109,173.242 212.105,173.113L212.105,168.91C212.105,168.781 212.152,168.668 212.246,168.574C212.344,168.48 212.457,168.433 212.59,168.433L212.688,168.433L212.688,168.359L211.027,168.359L211.027,168.433L211.129,168.433ZM218.637,172.824C218.527,172.824 218.43,172.789 218.352,172.715C218.27,172.64 218.227,172.551 218.223,172.445L218.223,169.222C218.223,168.93 218.238,168.652 218.273,168.387L218.289,168.254L218.223,168.254L214.285,171.984L214.285,168.828C214.285,168.715 214.324,168.625 214.406,168.547C214.484,168.472 214.586,168.433 214.699,168.433L214.828,168.433L214.828,168.359L213.398,168.359L213.398,168.433L213.527,168.433C213.645,168.433 213.742,168.472 213.824,168.547C213.902,168.625 213.945,168.715 213.945,168.828L213.945,172.066C213.945,172.375 213.926,172.652 213.891,172.894L213.875,173.015L213.957,173.008L217.887,169.305L217.887,172.445C217.879,172.551 217.832,172.64 217.75,172.715C217.672,172.789 217.574,172.824 217.465,172.824L217.336,172.824L217.336,172.898L218.766,172.898L218.766,172.824L218.637,172.824ZM224.406,170.629C224.406,169.93 224.188,169.375 223.75,168.969C223.312,168.562 222.723,168.359 221.977,168.359L219.449,168.359L219.449,168.433L219.547,168.433C219.668,168.433 219.77,168.472 219.848,168.555C219.93,168.637 219.973,168.73 219.977,168.844L219.977,172.414C219.973,172.535 219.93,172.637 219.844,172.711C219.762,172.785 219.66,172.824 219.539,172.824L219.449,172.824L219.449,172.898L221.977,172.898C222.469,172.898 222.902,172.808 223.266,172.629C223.633,172.445 223.914,172.183 224.109,171.84C224.309,171.496 224.406,171.094 224.406,170.629ZM220.469,172.672L220.469,168.586L221.977,168.586C222.555,168.586 223.016,168.769 223.355,169.133C223.691,169.5 223.859,170 223.859,170.629C223.859,171.262 223.691,171.758 223.355,172.125C223.016,172.492 222.555,172.672 221.977,172.672L220.469,172.672ZM229.742,172.824L229.629,172.824C229.492,172.824 229.391,172.773 229.32,172.664C229.289,172.621 229.27,172.566 229.266,172.508L229.266,169.957C229.266,169.43 229.098,169.015 228.762,168.711C228.426,168.406 227.965,168.254 227.383,168.254C226.797,168.254 226.332,168.402 225.996,168.707C225.656,169.008 225.488,169.422 225.488,169.949L225.488,172.5C225.488,172.59 225.453,172.668 225.383,172.73C225.312,172.793 225.227,172.824 225.125,172.824L225.012,172.824L225.012,172.898L226.449,172.898L226.449,172.824L226.336,172.824C226.234,172.824 226.148,172.793 226.078,172.73C226.008,172.668 225.973,172.59 225.973,172.5L225.973,170.039C225.973,169.551 226.098,169.164 226.348,168.879C226.598,168.598 226.949,168.457 227.406,168.457C227.863,168.457 228.23,168.59 228.504,168.859C228.781,169.125 228.918,169.492 228.918,169.957L228.918,172.5C228.914,172.594 228.875,172.672 228.809,172.734C228.738,172.793 228.656,172.824 228.555,172.824L228.441,172.824L228.441,172.898L229.742,172.898L229.742,172.824ZM230.445,168.609C230.434,168.668 230.426,168.793 230.426,168.98C230.426,169.164 230.457,169.355 230.523,169.547L230.613,169.547C230.609,169.5 230.605,169.457 230.605,169.41C230.605,169.137 230.695,168.914 230.875,168.742C231.055,168.566 231.301,168.48 231.621,168.48C231.953,168.48 232.215,168.555 232.398,168.711C232.586,168.863 232.68,169.062 232.68,169.308C232.68,169.555 232.59,169.758 232.406,169.918L230.895,171.082C230.652,171.289 230.531,171.566 230.531,171.918C230.531,172.113 230.586,172.293 230.691,172.461C230.801,172.629 230.953,172.762 231.148,172.859C231.34,172.957 231.57,173.008 231.832,173.008C232.094,173.008 232.328,172.984 232.527,172.937L232.777,172.937L232.793,172.113L232.711,172.113C232.711,172.324 232.637,172.488 232.492,172.605C232.344,172.722 232.137,172.777 231.863,172.777C231.59,172.777 231.367,172.711 231.188,172.57C231.012,172.433 230.926,172.254 230.926,172.035C230.926,171.812 231.023,171.625 231.219,171.461L232.75,170.281C232.98,170.09 233.098,169.82 233.098,169.48C233.098,169.137 232.965,168.844 232.707,168.609C232.445,168.371 232.129,168.254 231.758,168.254C231.508,168.254 231.262,168.281 231.016,168.344C230.766,168.402 230.578,168.492 230.445,168.609ZM235.941,172.68L235.941,168.836C235.949,168.68 236.023,168.562 236.172,168.488C236.234,168.453 236.309,168.433 236.391,168.433L236.473,168.433L236.473,168.359L234.914,168.359L234.914,168.433L235.004,168.433C235.125,168.433 235.23,168.472 235.316,168.555C235.402,168.637 235.445,168.73 235.449,168.844L235.449,172.68L234.082,172.68C233.965,172.68 233.871,172.644 233.805,172.566C233.734,172.492 233.703,172.402 233.703,172.293L233.703,172.172L233.617,172.172L233.617,173.027C233.719,172.988 233.863,172.957 234.047,172.937C234.23,172.918 234.367,172.906 234.461,172.906L236.926,172.906C237.289,172.906 237.574,172.949 237.773,173.027L237.773,172.172L237.691,172.172L237.691,172.293C237.691,172.402 237.656,172.492 237.586,172.566C237.516,172.644 237.426,172.68 237.312,172.68L235.941,172.68ZM239.711,172.664L239.312,172.664L239.312,168.844C239.316,168.687 239.387,168.566 239.523,168.488C239.59,168.453 239.664,168.433 239.742,168.433L239.84,168.433L239.848,168.359L238.297,168.359L238.297,168.433L238.402,168.433C238.52,168.433 238.617,168.472 238.703,168.551C238.785,168.629 238.828,168.722 238.828,168.836L238.828,172.43C238.828,172.543 238.785,172.637 238.703,172.711C238.617,172.785 238.52,172.824 238.402,172.824L238.297,172.824L238.297,172.898L240.199,172.898C240.672,172.898 241.047,172.793 241.32,172.574C241.598,172.359 241.734,172.074 241.734,171.719C241.734,171.367 241.621,171.07 241.402,170.832C241.18,170.598 240.895,170.461 240.555,170.426C240.715,170.355 240.91,170.156 241.137,169.836C241.133,169.836 241.219,169.722 241.398,169.5C241.578,169.277 241.719,169.105 241.828,168.984C241.938,168.859 242.027,168.765 242.098,168.699C242.285,168.523 242.5,168.433 242.742,168.433L242.742,168.359L242.508,168.359C242.109,168.359 241.793,168.437 241.566,168.594C241.395,168.707 241.238,168.851 241.098,169.023C241.066,169.066 240.941,169.242 240.715,169.558C240.492,169.875 240.371,170.043 240.355,170.062C240.082,170.398 239.828,170.57 239.59,170.57L239.59,170.644C240.184,170.644 240.539,170.676 240.66,170.734C240.824,170.82 240.938,170.91 241,171.008C241.125,171.211 241.188,171.433 241.188,171.676C241.188,171.98 241.098,172.219 240.918,172.387C240.734,172.551 240.488,172.644 240.184,172.656C240.047,172.664 239.891,172.664 239.711,172.664ZM243.148,168.433C243.285,168.433 243.406,168.472 243.504,168.555C243.605,168.637 243.656,168.73 243.656,168.844L243.656,172.414C243.656,172.527 243.605,172.621 243.504,172.703C243.406,172.785 243.285,172.824 243.141,172.824L243.043,172.824L243.043,172.898L244.754,172.898L244.754,172.824L244.656,172.824C244.52,172.824 244.402,172.785 244.305,172.711C244.207,172.637 244.152,172.543 244.141,172.43L244.141,168.836C244.145,168.722 244.199,168.629 244.301,168.551C244.402,168.472 244.52,168.433 244.656,168.433L244.754,168.433L244.762,168.359L243.043,168.359L243.043,168.433L243.148,168.433ZM245.691,168.433C245.812,168.433 245.918,168.472 246,168.551C246.082,168.629 246.129,168.722 246.133,168.836L246.133,172.43C246.133,172.543 246.09,172.637 246.004,172.711C245.918,172.785 245.812,172.824 245.691,172.824L245.586,172.824L245.586,172.898L247.797,172.898C248.004,172.898 248.188,172.914 248.344,172.945C248.5,172.976 248.602,173 248.645,173.023L248.645,172.16L248.562,172.168L248.562,172.281C248.562,172.387 248.527,172.476 248.457,172.551C248.387,172.629 248.293,172.664 248.184,172.664L246.609,172.664L246.609,170.742L247.902,170.742C248.004,170.742 248.082,170.773 248.133,170.832C248.188,170.894 248.215,170.969 248.215,171.062L248.215,171.16L248.297,171.16L248.297,170.098L248.215,170.098L248.215,170.199C248.215,170.34 248.16,170.433 248.055,170.484C248.016,170.5 247.973,170.512 247.926,170.515L246.609,170.515L246.609,168.594L247.797,168.594C248.031,168.594 248.227,168.633 248.383,168.715C248.543,168.793 248.664,168.89 248.746,169C248.832,169.113 248.914,169.258 249,169.441L249.078,169.441L248.66,168.359L245.586,168.359L245.586,168.433L245.691,168.433ZM249.742,168.609C249.727,168.668 249.719,168.793 249.719,168.98C249.719,169.164 249.754,169.355 249.82,169.547L249.91,169.547C249.906,169.5 249.902,169.457 249.902,169.41C249.902,169.137 249.992,168.914 250.172,168.742C250.352,168.566 250.598,168.48 250.918,168.48C251.25,168.48 251.508,168.555 251.695,168.711C251.883,168.863 251.977,169.062 251.977,169.308C251.977,169.555 251.887,169.758 251.703,169.918L250.191,171.082C249.949,171.289 249.828,171.566 249.828,171.918C249.828,172.113 249.879,172.293 249.988,172.461C250.098,172.629 250.25,172.762 250.445,172.859C250.637,172.957 250.867,173.008 251.129,173.008C251.391,173.008 251.625,172.984 251.824,172.937L252.074,172.937L252.09,172.113L252.008,172.113C252.008,172.324 251.934,172.488 251.789,172.605C251.641,172.722 251.43,172.777 251.16,172.777C250.887,172.777 250.66,172.711 250.484,172.57C250.309,172.433 250.219,172.254 250.219,172.035C250.219,171.812 250.32,171.625 250.516,171.461L252.043,170.281C252.277,170.09 252.395,169.82 252.395,169.48C252.395,169.137 252.262,168.844 252.004,168.609C251.742,168.371 251.426,168.254 251.055,168.254C250.805,168.254 250.559,168.281 250.312,168.344C250.062,168.402 249.875,168.492 249.742,168.609Z" style="fill:rgb(197,143,8);"/>
        </g>
        <path d="M1171.03,914.766L220.871,914.766L220.871,937.266L198.371,937.266L198.371,2062.73L220.871,2062.73L220.871,2085.23L1171.03,2085.23L1171.03,2062.73L1193.53,2062.73L1193.53,1649.99L1156.19,1649.99L1156.19,2047.99L235.579,2047.99L235.579,952.008L1156.19,952.008L1156.19,1360.92L1193.53,1360.92L1193.53,937.266L1171.03,937.266L1171.03,914.766Z" style="fill:rgb(6,35,49);"/>
    </g>
</svg>
